M48
;DRILL file {PCBnew (20090216-final)} date Sa 13 Feb 2010 00:13:02 CET
;FORMAT={2:3/ absolute / metric / keep zeros}
R,T
VER,1
FMAT,2
METRIC,TZ
TCST,OFF
ICI,OFF
ATC,ON
T1C0.635
T2C0.813
T3C0.899
T4C1.001
T5C1.016
T6C1.199
T7C1.270
T8C1.501
T9C3.000
%
M47
G05
M71
T1
X32385Y71755
X32385Y79375
X34925Y71755
X34925Y79375
X37465Y71755
X37465Y79375
X40005Y71755
X40005Y79375
X42545Y71755
X42545Y79375
X45085Y71755
X45085Y79375
X69850Y71120
X69850Y78740
X72390Y71120
X72390Y78740
X74930Y71120
X74930Y78740
X77470Y71120
X77470Y78740
X80010Y71120
X80010Y78740
X82550Y71120
X82550Y78740
X113030Y71120
X113030Y78740
X115570Y71120
X115570Y78740
X118110Y71120
X118110Y78740
X120650Y71120
X120650Y78740
X123190Y71120
X123190Y78740
X125730Y71120
X125730Y78740
X147320Y71120
X147320Y78740
X149860Y71120
X149860Y78740
X152400Y71120
X152400Y78740
X154940Y71120
X154940Y78740
X157480Y71120
X157480Y78740
X160020Y71120
X160020Y78740
T2
X41910Y62230
X41910Y64770
X45720Y88011
X45720Y91059
X57150Y50800
X59690Y50800
X62230Y62230
X64770Y62230
X67310Y62230
X69850Y62230
X74930Y60960
X74930Y63500
X85090Y88011
X85090Y91059
X124460Y88011
X124460Y91059
X152400Y48260
X152400Y50800
X163195Y88011
X163195Y91059
T3
X36195Y85725
X36195Y90805
X55245Y85725
X55245Y90805
X75565Y85725
X75565Y90805
X82525Y34290
X94044Y32144
X94044Y36436
X94615Y85725
X94615Y90805
X96203Y32144
X96203Y36436
X98362Y32144
X98362Y36436
X100521Y32144
X100521Y36436
X102680Y32144
X102680Y36436
X104839Y32144
X104839Y36436
X106998Y32144
X106998Y36436
X109157Y32144
X109157Y36436
X111316Y32144
X111316Y36436
X113475Y32144
X113475Y36436
X114935Y85725
X114935Y90805
X115634Y32144
X115634Y36436
X117793Y32144
X117793Y36436
X119952Y32144
X119952Y36436
X122111Y32144
X122111Y36436
X124270Y32144
X124270Y36436
X126429Y32144
X126429Y36436
X128588Y32144
X128588Y36436
X130747Y32144
X130747Y36436
X133985Y85725
X133985Y90805
X142265Y34290
X154305Y85725
X154305Y90805
X173355Y85725
X173355Y90805
T4
X30480Y95758
X31750Y97790
X33020Y95758
X34290Y97790
X35560Y95758
X36830Y97790
X38100Y95758
X39370Y97790
X40470Y120015
X40640Y95758
X41910Y97790
X43180Y95758
X43970Y120015
X44450Y97790
X45720Y45720
X45720Y55880
X45720Y95758
X46990Y97790
X47470Y120015
X48260Y95758
X48811Y87493
X49530Y97790
X50800Y95758
X50970Y120015
X52070Y97790
X53340Y95758
X54610Y97790
X55880Y95758
X57150Y97790
X58420Y95758
X59690Y97790
X60960Y95758
X69850Y95758
X71120Y97790
X72390Y95758
X73660Y97790
X74930Y95758
X76200Y97790
X77280Y66866
X77470Y95758
X78740Y97790
X79205Y120015
X80010Y95758
X80444Y66378
X81280Y97790
X82550Y95758
X82705Y120015
X83820Y97790
X85090Y95758
X85999Y53139
X86205Y120015
X86360Y97790
X87630Y95758
X87808Y68478
X88900Y97790
X89002Y86949
X89705Y120015
X90170Y95758
X91440Y97790
X92710Y95758
X93980Y97790
X95250Y95758
X96520Y97790
X97790Y95758
X97932Y69672
X99060Y97790
X100330Y95758
X101854Y68961
X109220Y95758
X110490Y97790
X111760Y95758
X113030Y97790
X114300Y95758
X115499Y46205
X115570Y97790
X115611Y43363
X115712Y40564
X116840Y95758
X118110Y97790
X118575Y120015
X119250Y46518
X119380Y95758
X120650Y97790
X121920Y95758
X122075Y120015
X123190Y97790
X124460Y95758
X125575Y120015
X125730Y97790
X127000Y95758
X128270Y97790
X128946Y86794
X129075Y120015
X129540Y95758
X130810Y97790
X132017Y69660
X132080Y95758
X133350Y97790
X133431Y46416
X133477Y37529
X133990Y51176
X134620Y95758
X135890Y97790
X136238Y46693
X137160Y95758
X138430Y97790
X139146Y47127
X139700Y95758
X142525Y89677
X142558Y46807
X147198Y47127
X148590Y95758
X149860Y97790
X151130Y95758
X152400Y97790
X153670Y95758
X154940Y97790
X156210Y95758
X157404Y89184
X157480Y97790
X157945Y120015
X158750Y95758
X160020Y97790
X161290Y95758
X161445Y120015
X162560Y97790
X163132Y70676
X163830Y95758
X164945Y120015
X165100Y97790
X166370Y69596
X166370Y95758
X167640Y97790
X168445Y120015
X168910Y95758
X170180Y97790
X171450Y95758
X172720Y97790
X173990Y95758
X175260Y97790
X176530Y95758
X177157Y46987
X177800Y97790
X179070Y95758
X180975Y38875
X180975Y42375
X180975Y45875
X180975Y49375
X180975Y52875
X180975Y56375
X180975Y62370
X180975Y65870
X180975Y69370
X180975Y72870
X180975Y76370
X180975Y79870
T5
X30607Y50546
X30607Y53086
X30607Y55626
X59690Y30480
X62230Y30480
X64770Y30480
X160020Y30480
X162560Y30480
X165100Y30480
T6
X37465Y33655
X42545Y33655
X55880Y69850
X55880Y80010
X70485Y41910
X70485Y46990
X92710Y69850
X92710Y80010
X135890Y69850
X135890Y80010
X159385Y48260
X159385Y50800
X159385Y53340
X170180Y43815
X170180Y48895
X170180Y69850
X170180Y80010
T7
X40640Y39370
X45720Y39370
X48260Y62230
X48260Y67310
X55880Y55880
X60960Y55880
X150495Y54610
X154305Y54610
T8
X35687Y40386
X35687Y65786
X49530Y35560
X74930Y35560
X149860Y35560
X175260Y35560
T9
X29210Y29210
X29210Y120650
X105410Y73660
X181610Y29210
X181610Y120650
T0
M30
